PathFileType	4	(X/Y/Z)	C:/Users/cpontonn/Documents/TRAVAIL - COURS/FORMATION DOCTORALE/COURS AUTOMNE/TP OPENSIM/ESCRIME DATA/C3Ds/Trial011.trc	
DataRate	CameraRate	NumFrames	NumMarkers	Units	OrigDataRate	OrigDataStartFrame	OrigNumFrames	
250.00	250.00	4	54	mm	250.00	396	790	
Frame#	Time	Sword:Root4			Screen:LBot			Screen:RBot			Screen:LTop			Screen:RTop			Screen:MTop			Sword:Root1			Sword:Root2			Sword:Root3			Sword:Root5			Sword:Root6			Sword:STip			LFHD			LBHD			RFHD			RBHD			C7			T10			CLAV			STRN			LSHO			LRAD			LHUM			LWRB			LWRA			RSHO			RBAC			RUPA			RRAD			RHUM			RWRB			RWRA			RCAR			LFWT			LBWT			RFWT			RBWT			LKNE			LKNI			LANE			LANI			LHEE			LTAR			LTARI			LTOE			RTHI			RKNE			RKNI			RANE			RANI			RHEE			RTAR			RTARI			RTOE			
		X1	Y1	Z1	X2	Y2	Z2	X3	Y3	Z3	X4	Y4	Z4	X5	Y5	Z5	X6	Y6	Z6	X7	Y7	Z7	X8	Y8	Z8	X9	Y9	Z9	X10	Y10	Z10	X11	Y11	Z11	X12	Y12	Z12	X13	Y13	Z13	X14	Y14	Z14	X15	Y15	Z15	X16	Y16	Z16	X17	Y17	Z17	X18	Y18	Z18	X19	Y19	Z19	X20	Y20	Z20	X21	Y21	Z21	X22	Y22	Z22	X23	Y23	Z23	X24	Y24	Z24	X25	Y25	Z25	X26	Y26	Z26	X27	Y27	Z27	X28	Y28	Z28	X29	Y29	Z29	X30	Y30	Z30	X31	Y31	Z31	X32	Y32	Z32	X33	Y33	Z33	X34	Y34	Z34	X35	Y35	Z35	X36	Y36	Z36	X37	Y37	Z37	X38	Y38	Z38	X39	Y39	Z39	X40	Y40	Z40	X41	Y41	Z41	X42	Y42	Z42	X43	Y43	Z43	X44	Y44	Z44	X45	Y45	Z45	X46	Y46	Z46	X47	Y47	Z47	X48	Y48	Z48	X49	Y49	Z49	X50	Y50	Z50	X51	Y51	Z51	X52	Y52	Z52	X53	Y53	Z53	X54	Y54	Z54	

396	1.580	223.12984	2388.79541	968.90155	-1670.74451	3506.28174	29.58839	2281.31958	3509.32275	32.16899	-1652.60730	3517.64526	2206.19629	2272.66211	3511.73291	2215.30273	-472.39398	3518.58398	2201.53735	275.80481	2429.95483	956.42279	319.91769	2769.80005	939.66962	333.73605	2342.68433	932.46051	183.67419	2344.73828	945.21667	258.70737	2374.34839	894.90497	369.86807	3255.02075	830.00153	179.97182	1755.71045	1375.51367	154.78682	1662.68042	1340.00854	393.78912	1730.91907	1394.09753	390.96216	1619.52588	1342.73999	209.15433	1583.91211	1214.13965	142.41597	1492.10962	967.73724	337.07623	1666.33777	1115.18433	364.56537	1647.26807	957.69763	154.68605	1756.01917	1134.96460	170.08786	1997.21387	972.98743	221.92799	1973.09070	922.05219	231.11089	2242.63086	882.34790	245.68739	2250.00562	982.89471	347.72626	1462.25159	1207.47668	205.54494	1434.06885	1134.72229	414.40277	1298.04041	1103.12524	375.38123	1184.46619	1073.37939	345.30759	1207.03845	987.94733	646.45087	1210.64185	1024.93408	620.40295	1299.76563	1048.10364	692.11444	1273.21423	1082.55518	251.00424	1652.37402	714.60425	113.67585	1475.82495	779.40735	373.36932	1460.46375	727.41217	164.04346	1413.44055	790.50269	174.47737	1954.90234	498.90878	305.37735	1932.58923	454.15631	169.47540	2102.56372	102.34500	264.10056	2080.83203	103.16505	194.58266	2039.07397	49.30830	190.90942	2254.82690	67.67696	293.00827	2222.84961	73.11134	282.78940	2299.75708	100.17594	420.70053	1216.86145	409.01651	362.79733	1109.35168	414.99536	337.80923	1178.72302	305.00717	213.91385	807.46362	144.29434	262.42148	853.92792	73.45084	169.01671	841.58612	85.88490	316.33261	674.73486	86.88577	361.34952	761.43878	33.17829	407.95798	701.05377	48.80457 
397	1.584	224.82114	2396.91089	968.28424	-1670.74719	3506.28198	29.58917	2281.52612	3509.19604	32.47676	-1652.53552	3517.75269	2206.18335	2272.62769	3511.71997	2215.31299	-472.45236	3518.40552	2201.37109	278.00183	2437.61255	956.15961	325.33545	2777.02563	941.96252	335.05951	2349.73096	931.91077	185.34535	2353.14526	944.63147	260.65717	2382.21631	894.47058	381.81317	3264.58228	845.92505	179.31996	1765.12354	1372.77502	153.91985	1672.13855	1337.23206	392.99277	1739.88220	1391.56287	390.03305	1628.56641	1340.18555	208.79022	1592.87500	1212.27197	142.50618	1498.93933	966.60291	336.71494	1674.78979	1112.12024	363.72586	1655.07764	954.36395	153.86861	1764.33752	1132.79016	171.05936	2005.55139	971.96313	222.89771	1981.49731	920.98633	232.07947	2250.52612	881.97906	246.93210	2257.81714	982.48090	347.87567	1471.45544	1206.17480	205.00517	1442.45166	1133.41956	412.50491	1306.17944	1101.18616	371.47870	1193.24011	1072.08594	341.48428	1216.23511	986.63232	643.28131	1216.48901	1021.49835	618.43597	1305.82043	1045.11023	690.13550	1278.29419	1078.79932	251.53027	1659.38965	712.69641	113.53485	1480.76575	777.81860	373.31128	1466.28613	725.62146	163.73384	1419.03845	788.73657	174.60303	1962.11633	500.44913	305.72778	1941.31543	460.40231	169.01378	2105.48267	101.99072	263.80362	2084.23975	103.47665	194.60648	2040.80859	50.72665	190.33069	2257.33643	62.63956	292.44470	2225.61475	69.80938	282.02213	2303.64673	94.05801	420.82294	1221.61792	408.04486	363.18799	1114.13916	413.12323	338.91553	1183.15894	303.98355	212.24593	813.30597	143.36829	261.15848	859.48602	72.59991	167.67851	847.30920	84.53564	314.69565	680.40839	86.68771	360.56232	766.95740	33.17624	406.62115	706.34106	49.21811 
398	1.588	227.08539	2404.88770	967.80182	-1670.85181	3506.29175	29.61116	2280.29468	3507.70459	33.43386	-1652.59729	3517.66919	2206.21411	2272.61694	3511.69556	2215.25366	-472.41895	3518.57544	2201.51221	280.24072	2445.01733	955.65839	330.55591	2783.99170	944.17444	336.89017	2356.91113	931.65564	186.99268	2361.48730	943.81476	262.72568	2389.84375	893.98444	394.20163	3273.52173	862.34222	178.56458	1774.42566	1370.07275	153.01547	1681.45007	1334.54175	392.25992	1748.78235	1389.10938	389.14752	1637.44128	1337.76367	208.42636	1601.65869	1210.42151	142.72592	1505.52258	965.37262	336.82562	1683.18433	1109.17249	362.90048	1662.68054	951.03333	153.06093	1772.44995	1130.73608	171.90826	2013.54309	970.99469	223.83630	1989.58472	920.13214	233.00301	2258.31226	881.77466	248.21738	2265.59741	982.08325	348.01221	1480.39014	1204.89124	204.82852	1450.28162	1132.20313	410.64255	1314.22253	1099.32361	367.68890	1201.92200	1070.73999	337.86090	1225.39233	985.28821	640.18488	1222.58167	1017.96204	616.53925	1312.01599	1042.19714	688.17523	1283.43250	1075.04053	250.91121	1665.55066	711.00677	113.49766	1485.65405	776.17670	373.23114	1472.00220	724.06488	163.44252	1424.60132	786.96875	174.17030	1969.28088	500.90433	305.21344	1949.97290	464.75177	168.59843	2108.43774	101.54427	263.49921	2087.69067	103.62964	194.60928	2042.57813	52.04976	189.68210	2259.69336	57.84090	291.90134	2228.32080	66.68044	281.33426	2307.17139	88.19618	421.01865	1226.30090	407.27985	363.35733	1118.85388	411.29031	340.12720	1187.62329	302.93515	210.66727	819.24695	142.30200	259.98230	865.00085	71.65746	166.42845	853.14185	83.05655	313.06360	685.84241	86.55388	359.66534	772.21075	33.03731	405.13129	711.24396	49.65269 
399	1.592	228.48747	2412.72559	966.79797	-1670.81494	3506.29028	29.54752	2280.49072	3507.53613	33.39005	-1652.58679	3517.59546	2206.11353	2272.25684	3511.15649	2215.46387	-472.44247	3518.50757	2201.53442	282.49417	2452.57373	955.14478	335.59860	2790.89453	945.86902	338.70355	2364.07861	931.30133	188.58185	2369.63647	942.83710	264.84549	2397.39819	893.29187	406.61136	3281.97290	878.17346	177.88203	1783.58777	1367.40149	152.14497	1690.67102	1331.86255	391.51889	1757.61462	1386.71057	388.26245	1646.19678	1335.38147	208.10146	1610.35828	1208.56445	143.06303	1511.86816	964.08411	336.22366	1690.90417	1106.13196	362.15860	1670.06323	947.66101	152.27203	1780.34106	1128.76404	172.70624	2021.26624	970.08820	224.58040	1997.38635	919.45660	234.52438	2265.99707	881.15399	249.48474	2273.35400	981.69012	348.09940	1489.07910	1203.63513	205.08769	1457.81995	1131.12659	408.80865	1322.12402	1097.52966	363.96365	1210.43713	1069.34155	334.36945	1234.53748	983.94641	637.10986	1228.22266	1014.61243	614.48767	1317.97754	1039.15698	686.24396	1288.62012	1071.24426	250.34937	1671.81091	709.35059	113.44816	1490.53369	774.57465	373.12024	1477.64294	722.59393	163.22849	1430.13647	785.22473	173.00252	1976.22546	500.62073	304.48254	1958.49146	466.86215	168.35773	2111.21851	101.06524	263.32065	2090.93823	103.70905	194.69287	2044.36707	53.23842	189.24010	2261.76270	53.41723	291.59140	2230.73926	63.59923	280.59631	2310.30786	82.73882	421.08331	1230.93652	406.67587	363.27808	1123.72009	409.68253	341.12988	1192.55969	302.08447	209.17111	825.19513	141.25618	258.95145	870.48926	70.68636	165.26637	858.97626	81.49939	311.30237	691.39551	86.58466	358.69098	777.34625	32.88691	403.72720	716.18475	49.94853 
